PathFileType	4	(X/Y/Z)	/Users/niels/Desktop/University/Third Semester/Perception and Action/Exam/Gymnastics Motion Tracking/Code for Gym Tracking/Analyzed Data/Webcam_Backflip/id6_3_baseline_Sports2D/id6_3_baseline_Sports2D_px_person00.trc
DataRate	CameraRate	NumFrames	NumMarkers	Units	OrigDataRate	OrigDataStartFrame	OrigNumFrames
29.8125	29.8125	8	22	m	29.8125	120	160
Frame#	Time	Hip			RHip			RKnee			RAnkle			RBigToe			RSmallToe			RHeel			LHip			LKnee			LAnkle			LBigToe			LSmallToe			LHeel			Neck			Head			Nose			RShoulder			RElbow			RWrist			LShoulder			LElbow			LWrist		
		X1	Y1	Z1	X2	Y2	Z2	X3	Y3	Z3	X4	Y4	Z4	X5	Y5	Z5	X6	Y6	Z6	X7	Y7	Z7	X8	Y8	Z8	X9	Y9	Z9	X10	Y10	Z10	X11	Y11	Z11	X12	Y12	Z12	X13	Y13	Z13	X14	Y14	Z14	X15	Y15	Z15	X16	Y16	Z16	X17	Y17	Z17	X18	Y18	Z18	X19	Y19	Z19	X20	Y20	Z20	X21	Y21	Z21	X22	Y22	Z22
120	4.025157232704402	0.7645903264813784	-0.5293024227714296	0.0	0.7642714528734389	-0.5288647040021658	0.0	0.800809213747301	-0.62936822743105	0.0	0.7634375878312594	-0.7234162134990965	0.0	0.7793544968236731	-0.7539520455265122	0.0	0.7750111591297534	-0.7560539776668045	0.0	0.7541016612682383	-0.7362990157393681	0.0	0.7602974457627589	-0.5273583544144904	0.0	0.751061236228397	-0.627585043526582	0.0	0.6892218251381729	-0.7025468914412407	0.0	0.6977418033862951	-0.7437368532897075	0.0	0.6917218151363056	-0.7362989109825676	0.0	0.6763123503720503	-0.7117898857681315	0.0	0.7680064903372792	-0.3976966730762103	0.0	0.7912098262857254	-0.3293742778664494	0.0	0.7989270001777542	-0.369873503383443	0.0	0.757230417827473	-0.4130310650383421	0.0	0.7357477254308195	-0.4705623956026802	0.0	0.7923174530492679	-0.4961333059011745	0.0	0.7707266441493054	-0.4121464024531494	0.0	0.7680790905060799	-0.46490402643539247	0.0	0.8203049941223063	-0.4694381642434401	0.0
121	4.058700209643606	0.7759420817292283	-0.5072814786334405	0.0	0.7753469996413151	-0.5074386746575923	0.0	0.8101106511302181	-0.6096499797708901	0.0	0.7763277909445365	-0.7050323817231269	0.0	0.7905301654289021	-0.7380888965757192	0.0	0.7866087507352864	-0.7401003543751539	0.0	0.7674378861068345	-0.7179035672944912	0.0	0.7715302643869975	-0.5058486876995538	0.0	0.7691265720278776	-0.6081585003525909	0.0	0.7079925911767263	-0.6841938480041645	0.0	0.7187930878597895	-0.7273992382896342	0.0	0.7122044266883055	-0.7202823829958014	0.0	0.6950293382539134	-0.6925613011856803	0.0	0.7780126636964171	-0.37706730800782123	0.0	0.8030693580260526	-0.30903484041442286	0.0	0.8096295226203111	-0.35000885134745413	0.0	0.7684312417793814	-0.3912093477030588	0.0	0.7448890592184979	-0.44551395544311223	0.0	0.803261013428145	-0.4674131166351901	0.0	0.7800026630258704	-0.3909213172527701	0.0	0.7770510107001196	-0.4439374304854813	0.0	0.8315305979722932	-0.4509469818542376	0.0
122	4.092243186582809	0.7866288507010634	-0.48908691103989016	0.0	0.78568922669867	-0.48971272713917663	0.0	0.819532502273813	-0.5929762813358923	0.0	0.7907838530809573	-0.6898519438541914	0.0	0.804171859576195	-0.7246477185887176	0.0	0.8002220064979906	-0.7264225077851802	0.0	0.7823103323425892	-0.7025714388072664	0.0	0.7822728483285828	-0.4880239011309745	0.0	0.7871094949992427	-0.5921670521566872	0.0	0.7284152626499968	-0.6700214768581446	0.0	0.7428271820477871	-0.7139982272091908	0.0	0.7358615966257807	-0.7073653055182559	0.0	0.7156672890225115	-0.678013014903775	0.0	0.7886326965014289	-0.35988060799375465	0.0	0.8156359217775483	-0.2927671134635575	0.0	0.8211639916541282	-0.33385471696596347	0.0	0.7799518248196227	-0.3728335284013169	0.0	0.7549620402064982	-0.42436835774268117	0.0	0.8146925582898953	-0.44439695406438307	0.0	0.7894680473369913	-0.37329887298039627	0.0	0.7857412174017271	-0.42698164346980383	0.0	0.841966218105082	-0.4372357406187202	0.0
123	4.125786163522012	0.7967353181315435	-0.47510665330068397	0.0	0.7953885212141321	-0.47596545513440747	0.0	0.8291901789205296	-0.5795296867873443	0.0	0.8065268392082251	-0.677992240609878	0.0	0.8208118572461502	-0.7141230131543197	0.0	0.8162865340984784	-0.7155598054283816	0.0	0.7983319602781302	-0.69062892737183	0.0	0.7927785986280724	-0.47418336191779736	0.0	0.8045830808141757	-0.5795091948410009	0.0	0.7500603883919575	-0.6598242176456978	0.0	0.7686302827048307	-0.7036562081199469	0.0	0.761482236025069	-0.6974838441575254	0.0	0.7377133950799349	-0.668037182255354	0.0	0.7997300312931641	-0.3464891794069106	0.0	0.8285601002018966	-0.2805675505854038	0.0	0.8332251832656793	-0.32157632011194953	0.0	0.7913334077687153	-0.3582491136100661	0.0	0.7659478256489987	-0.40771288218070884	0.0	0.8267894103578457	-0.42777222461732733	0.0	0.7994092471167236	-0.3596386640870128	0.0	0.79453304624723	-0.4140971351212909	0.0	0.8517064643696296	-0.42830467737424893	0.0
124	4.159329140461216	0.8064096612165469	-0.46544181733012163	0.0	0.8046635753457615	-0.4663169670864669	0.0	0.8391754195758949	-0.5694701184291948	0.0	0.8232420151525333	-0.6694541576670493	0.0	0.8402621048130657	-0.7065575952169098	0.0	0.8347725115471213	-0.7076887420058936	0.0	0.8151564269055614	-0.6822195004098586	0.0	0.8032142995786508	-0.46445134810919253	0.0	0.8212723108291982	-0.5700268518195675	0.0	0.7727225522349855	-0.6533282071622188	0.0	0.795560738851882	-0.6963504563682729	0.0	0.7883091966170175	-0.6905456805797436	0.0	0.7608963757306807	-0.6623070793539656	0.0	0.8111449338026848	-0.3370574572557183	0.0	0.8416507294680903	-0.27225663230811886	0.0	0.8455201139219022	-0.3132278930699403	0.0	0.802430142172596	-0.3476765424634777	0.0	0.7776721540197382	-0.395865603121439	0.0	0.8392944720271512	-0.4175990679202445	0.0	0.8098749386250746	-0.3500170894566675	0.0	0.8038301005790829	-0.4050709559101987	0.0	0.8611452093453801	-0.42368322938835445	0.0
125	4.192872117400419	0.8158121901065406	-0.4599943454271241	0.0	0.8137836440911278	-0.46077095691029074	0.0	0.8494889988963888	-0.5630431923965064	0.0	0.8405470525277852	-0.6642088027348412	0.0	0.86165570378944	-0.7017529718510193	0.0	0.8550996088047579	-0.7027421786689043	0.0	0.8324530682165348	-0.6773808178666019	0.0	0.8135598897926233	-0.4588107082110735	0.0	0.8369616922425221	-0.563684922307459	0.0	0.7963463484490162	-0.6503540925798309	0.0	0.8235113167499482	-0.69206380129955	0.0	0.8160791704714019	-0.6865511842869763	0.0	0.7851291935837014	-0.6605350118036291	0.0	0.8227304353100202	-0.33158412600382003	0.0	0.8549076751493041	-0.26769858009332104	0.0	0.8577661466544231	-0.30878766874526375	0.0	0.8133871678740802	-0.34126946895898325	0.0	0.7899028101212674	-0.3889848794342561	0.0	0.8516572816790586	-0.41352145471134993	0.0	0.8206584689505488	-0.34430754330345914	0.0	0.8138651229887044	-0.39955075690723124	0.0	0.8707492323193433	-0.4224291148364644	0.0
126	4.226415094339622	0.8251389723254364	-0.4585935684482745	0.0	0.8230326300933197	-0.4592367044967556	0.0	0.8600376164621616	-0.5604748041304808	0.0	0.8580278658082803	-0.6622216758310446	0.0	0.8838779708221369	-0.6995627720369365	0.0	0.8763261891862224	-0.7006034080051662	0.0	0.8498686692514436	-0.6760326738154259	0.0	0.8236977066795048	-0.45716809295031496	0.0	0.8514923998450821	-0.5605900867961736	0.0	0.8208405070863046	-0.6508516863466612	0.0	0.8522960559402458	-0.6907867667484212	0.0	0.8445855897906313	-0.6854779316350824	0.0	0.8103165241399165	-0.6625514888490747	0.0	0.8343760031120689	-0.3299368508264315	0.0	0.8682948010589615	-0.26684988779230673	0.0	0.8697589020751327	-0.3081225028138904	0.0	0.8243807679957137	-0.3390739031614257	0.0	0.8023913725693882	-0.38708276877851666	0.0	0.863291384971906	-0.415045944496157	0.0	0.8314506610572503	-0.34230753252493656	0.0	0.8245879141614105	-0.3969607626150828	0.0	0.8806918765515481	-0.4231785108765565	0.0
127	4.259958071278826	0.8346372248798312	-0.4611015544748334	0.0	0.8326689498673534	-0.46159043972065356	0.0	0.8707123997392542	-0.5618858254441024	0.0	0.8752776113389847	-0.6635230492607445	0.0	0.9059056440788796	-0.7000593726496162	0.0	0.8974249723558975	-0.7012790709166822	0.0	0.867060900968188	-0.6780785017755802	0.0	0.8335946048119627	-0.45941633599775233	0.0	0.8648764692139137	-0.5608968686446646	0.0	0.8458485046020203	-0.6548200138034223	0.0	0.8810613694900903	-0.6925777669787472	0.0	0.8732024139866287	-0.6873319938030878	0.0	0.8360793082125303	-0.6682745302353449	0.0	0.8459999832532019	-0.33194400210344616	0.0	0.8816123245802303	-0.26971967460313595	0.0	0.8814191296129394	-0.31105009249265236	0.0	0.8354885633123057	-0.3410776913542671	0.0	0.8149138642494341	-0.3900883970566028	0.0	0.8738686308734422	-0.4217330997940774	0.0	0.8419970453640099	-0.3438186465229276	0.0	0.8356530162377963	-0.39647866184738056	0.0	0.8906850379620125	-0.4244460166237235	0.0
